<svg xmlns="http://www.w3.org/2000/svg" xmlns:xlink="http://www.w3.org/1999/xlink" width="508" height="622" viewBox="0 0 508 622">
  <defs>
    <clipPath id="clip-custom_2">
      <rect width="508" height="622"/>
    </clipPath>
  </defs>
  <g id="custom_2" data-name="custom – 2" clip-path="url(#clip-custom_2)">
    <rect width="508" height="622" fill="#fff"/>
    <g id="Grupo_18" data-name="Grupo 18" transform="translate(-69 -65)">
      <rect id="Rectángulo_6" data-name="Rectángulo 6" width="82.496" height="190.638" transform="matrix(-0.004, -1, 1, -0.004, 127.782, 387.058)" fill="none"/>
      <rect id="Rectángulo_7" data-name="Rectángulo 7" width="191.451" height="85.596" transform="translate(326.341 307.495)" fill="none"/>
      <path id="Trazado_2" data-name="Trazado 2" d="M359.939,145.63c4.656-14.879,8.543-30.367,14.928-44.621a111.612,111.612,0,0,1,23.22-33.376.375.375,0,0,0-.53-.53,112.209,112.209,0,0,0-23.337,33.528c-6.418,14.316-10.327,29.856-15,44.8-.144.462.579.659.723.2Z" transform="translate(-16.108 137.034)"/>
      <path id="Trazado_3" data-name="Trazado 3" d="M330.561,306.244c-14.6,41.084-64.111,72.8-55.2,120.917.088.474.811.273.723-.2-8.859-47.824,40.668-79.632,55.2-120.518.162-.456-.562-.652-.723-.2Z" transform="translate(-16.108 137.034)"/>
      <path id="Trazado_4" data-name="Trazado 4" d="M331.445,147.205c.4-27.233,4.109-59.355-17.57-80.132-.349-.334-.88.2-.53.53,21.531,20.636,17.748,52.563,17.35,79.6a.375.375,0,0,0,.75,0Z" transform="translate(-16.108 137.034)"/>
      <path id="Trazado_11" data-name="Trazado 11" d="M357.44,246.867a29.519,29.519,0,0,1-2.9,14.462c-1.087,2.447-3.247,5.116-3.461,7.83-.17,2.159,1.015,4.225,1.854,6.134q2.737,6.228,5.478,12.454c.194.441.84.06.648-.379l-4.7-10.675c-1.2-2.751-2.117-4.485-1.754-7.6.319-2.732,1.1-4.191,2.218-6.609,2.306-4.993,3.778-10.077,3.364-15.615-.036-.478-.786-.482-.75,0Z" transform="translate(-16.108 137.034)"/>
      <path id="Trazado_12" data-name="Trazado 12" d="M427.714,156.375a.375.375,0,1,0-.362-.375.375.375,0,0,0,.362.375Z" transform="translate(-16.108 137.034)" fill="#fff"/>
      <path id="Trazado_17" data-name="Trazado 17" d="M351.8,171.641c9.341-5.264,6.059-17.134,9.31-25.6.693-1.8-2.206-2.584-2.893-.8-2.864,7.456.126,19.264-7.931,23.8a1.5,1.5,0,0,0,1.514,2.59Z" transform="translate(-16.108 137.034)"/>
      <path id="Trazado_20" data-name="Trazado 20" d="M289.714,252.161a.375.375,0,1,0-.362-.375A.375.375,0,0,0,289.714,252.161Z" transform="translate(-16.108 137.034)" fill="#fff"/>
      <path id="Trazado_27" data-name="Trazado 27" d="M333.737,182.847c-2.631-3.717-6.919-4.79-11.226-5.416a130.822,130.822,0,0,0-24.984-1.09c-8.086.407-15.571.912-23.644-.56-10.656-1.943-20.962-5.184-31.716-6.735a177.056,177.056,0,0,0-49.881-.581c-16.67,2.292-31.786,6.123-43.091,19.526-2.08,2.466-7.087,8.091-5.532,11.847,1.374,3.317,7.547,2.2,10.133,1.854,3.251-.432,6.281-1.817,9.208-.922,7.5,2.295,14.727,5.41,22.319,7.523,5.133,1.429,10.252,2.592,15.17,4.691a96.841,96.841,0,0,1,14.829,8.478c8.289,5.417,17.01,9.573,26.741,11.637a72.426,72.426,0,0,0,12.21,1.526c2.228.086,4.809-.419,6.979-.075,5.007.793,5.886,3.619,8.626,6.471a28.567,28.567,0,0,0,17.511,8.386c8.9.917,16.567-2.9,23.377-8.337,6.417-5.122,13.241-10.84,16.49-18.6,3.367-8.043,4.361-17.5,5.88-26.023.67-3.76,2.6-9.942.6-13.6-.232-.424-.88-.046-.648.379,2.054,3.756-.218,10.543-.922,14.373-1.349,7.348-2.444,15.005-4.719,22.136-2.169,6.8-6.924,11.883-12.178,16.524-6.991,6.174-14.633,12.309-24.406,12.534A27.613,27.613,0,0,1,268.648,238.4c-1.447-1.855-2.359-3.79-4.731-4.45-3.436-.956-7.786.066-11.386-.162a71.533,71.533,0,0,1-28.21-7.8c-8.076-4.176-15.077-10.106-23.485-13.689-7.638-3.255-15.924-4.738-23.81-7.293q-4.793-1.553-9.518-3.307c-1.677-.622-3.824-1.943-5.611-2.175-2.043-.265-4.658.878-6.718,1.21-2.34.377-6.385,1.277-8.719.292-4.066-1.716-1.185-6.27.524-8.873C156.279,178,171.5,172.279,187.5,169.892a177.56,177.56,0,0,1,45.094-1.267,235.282,235.282,0,0,1,32.71,5.989c8.052,2,16.134,3.511,24.464,3.039a210.054,210.054,0,0,1,23.935-.238c6.237.35,15.323.075,19.381,5.81C333.366,183.617,334.016,183.242,333.737,182.847Z" transform="translate(-16.108 137.034)"/>
      <path id="Trazado_28" data-name="Trazado 28" d="M318.784,233.3a33.86,33.86,0,0,1-.3,25.879c-.186.445.54.639.723.2a34.413,34.413,0,0,0,.3-26.277c-.174-.445-.9-.251-.723.2Z" transform="translate(-16.108 137.034)"/>
      <path id="Trazado_29" data-name="Trazado 29" d="M314.86,236.823c-3.361,8.013-1.1,14.349-.288,22.573.936,9.448-7.092,17.714-12.094,25.132-.271.4.379.777.648.379l8.2-12.156c1.8-2.677,3.522-5.111,4.036-8.365.541-3.425-.258-6.9-.867-10.253-1.1-6.037-1.321-11.36,1.091-17.11C315.77,236.578,315.044,236.384,314.86,236.823Z" transform="translate(-16.108 137.034)"/>
      <path id="Trazado_30" data-name="Trazado 30" d="M338.634,166.8c-8.9-2.707-5.8-14.809-5.766-21.566a1.5,1.5,0,0,0-3,0c-.036,8.461-2.787,21.186,7.969,24.459,1.851.563,2.642-2.331.8-2.893Z" transform="translate(-16.108 137.034)"/>
      <path id="Trazado_31" data-name="Trazado 31" d="M329.986,306.006c5.056,10.785,11.743,21.9,14.657,33.5,3.3,13.118-1.543,25.968-6.089,38.133-5.959,15.945-12.017,37.34,3.307,50.217.367.309.9-.219.53-.53-19.3-16.22-4.662-42.636,1.144-61.508,3.025-9.832,4.188-19.862.857-29.769-3.521-10.472-9.078-20.435-13.759-30.419-.2-.437-.852-.056-.648.379Z" transform="translate(-16.108 137.034)"/>
      <path id="Trazado_32" data-name="Trazado 32" d="M336.214,220.875a.375.375,0,1,0-.362-.375A.375.375,0,0,0,336.214,220.875Z" transform="translate(-16.108 137.034)"/>
      <circle id="Elipse_1" data-name="Elipse 1" cx="10.272" cy="10.272" r="10.272" transform="translate(316.069 301.93)" stroke="#000" stroke-miterlimit="10" stroke-width="0.25"/>
      <path id="Trazado_33" data-name="Trazado 33" d="M333.415,177.887c1.84,4.037-1.682,8.421-2.17,12.831-.213,1.928.17,3.876.057,5.812-.36,6.165-5.646,12.081-3.436,17.847a7.2,7.2,0,0,1,.915,3.1,6.008,6.008,0,0,1-1.138,2.449,12.834,12.834,0,0,0-.938,11.361,8.017,8.017,0,0,1,.9,2.931,7.783,7.783,0,0,1-1,3.04,14.207,14.207,0,0,0,.5,12.387,6.209,6.209,0,0,1,1.184,3.221,5.764,5.764,0,0,1-.816,2.172,20.8,20.8,0,0,0-2.072,12.512,13.385,13.385,0,0,1,.323,4.314,14.649,14.649,0,0,1-1.25,3.209,16.431,16.431,0,0,0-.2,12.609,7.78,7.78,0,0,1,.868,3.021c-.035,1.342-.906,2.49-1.561,3.661a11.4,11.4,0,0,0,.773,12.431c2.77,3.428,8.149,4.6,11.876,2.245,4.974-3.141,5.213-10.51,2.969-15.949a6.816,6.816,0,0,1-.685-2.314,7.451,7.451,0,0,1,1.173-3.4,16.229,16.229,0,0,0,1-11.644,14.131,14.131,0,0,1-.866-3.576,13.67,13.67,0,0,1,1.164-4.531,17.634,17.634,0,0,0-.046-11.2,9.844,9.844,0,0,1-.747-2.828,9.737,9.737,0,0,1,.975-3.613,18.552,18.552,0,0,0-.031-12.983,4.358,4.358,0,0,1-.443-1.881,4.1,4.1,0,0,1,.791-1.781c3.239-5.047,5.167-12.06,1.461-16.775,2.675-6.211,2.318-10.171,1.442-12.672a11.171,11.171,0,0,1-1.025-3.765c-.147-3.273,1.692-5.024,2.817-7.925a16.214,16.214,0,0,0,.523-9.3" transform="translate(-16.108 137.034)"/>
      <g id="Grupo_17" data-name="Grupo 17" transform="translate(124 204)">
        <path id="Trazado_34" data-name="Trazado 34" d="M344.3,223.867a9.383,9.383,0,0,0,.37-7.616,3.367,3.367,0,0,1-.4-1.642,3.2,3.2,0,0,1,.765-1.407,13.2,13.2,0,0,0,.7-14.494,4.289,4.289,0,0,1-.916-2.221,4.142,4.142,0,0,1,.793-1.93,16.277,16.277,0,0,0,1.717-12.455,1.069,1.069,0,0,0-.467-.743c-.4-.187-.837.146-1.128.474a15.213,15.213,0,0,0-2.506,4.352,46,46,0,0,0-1.849,29.572" transform="translate(-140.108 -66.966)"/>
        <path id="Trazado_35" data-name="Trazado 35" d="M344.663,223.967c1.656-4.084-.19-7.876,1.476-11.739,1.292-2.994,2.154-5.742,1.61-9.054-.286-1.74-1.248-3.045-1.687-4.655-.811-2.978.724-4.908,1.5-7.557.86-2.937,1.33-7.079-.373-9.792a.374.374,0,0,0-.324-.186c-3.966.286-5.76,9.909-6.375,12.712a47.832,47.832,0,0,0,.53,22.161.375.375,0,0,0,.723-.2,46.926,46.926,0,0,1-.34-22.628c.551-2.3,2.994-13.558,6.072-7.747,1.7,3.2-2.278,7.325-2.727,10.058a4.107,4.107,0,0,0,.043,2.491c.328,1.627,1.746,3.117,2.126,4.852a13.155,13.155,0,0,1-.156,6.033c-.531,2.015-2.49,3.917-2.859,5.893-.145.776.283,1.028.409,1.742.483,2.723.725,4.716-.37,7.417-.181.447.544.642.723.2Z" transform="translate(-140.108 -66.966)"/>
      </g>
      <path id="Trazado_36" data-name="Trazado 36" d="M329.764,304.217c3.924,24.39-8.361,46.939-12.973,70.3a130.1,130.1,0,0,0,3.794,64.356c.145.459.869.263.723-.2a129.72,129.72,0,0,1-2.195-71.011c5.3-20.943,14.925-41.567,11.374-63.642-.076-.475-.8-.274-.723.2Z" transform="translate(-16.108 137.034)"/>
      <path id="Trazado_39" data-name="Trazado 39" d="M347.312,184.844c12.047-7.762,25.968-11.708,40.227-9.285,12.667,2.153,24.124,2.963,36.866.207,8.934-1.933,17.684-4.513,26.808-5.453a153.812,153.812,0,0,1,22.207-.486c15.34.653,30.52,4.472,43.9,12.123,2.093,1.2,19.422,12.029,14.69,14.684-1.366.767-6.009-.347-7.606-.3a27.176,27.176,0,0,0-9.7,1.849c-2.36.99-4.192,2.654-6.305,4.027-2.631,1.709-5.5,2.363-8.353,3.547a50.022,50.022,0,0,0-8,4.644c-21.182,13.773-48.313,21.174-73.375,23.293q-3.213.272-6.434.428c-.623.03-3.337-.225-4.035.194-.472.284-.813,1.364-1.1,1.828a31.86,31.86,0,0,1-3.912,5.149c-5.437,5.771-12.6,8.663-20.294,10.139-10.129,1.945-20.1.654-26.953-7.712a53.849,53.849,0,0,1-11.189-24.271c-.09-.474-.813-.273-.723.2,2.434,12.816,9.9,29.317,23.812,32.695,12.227,2.969,27.957-1.671,36.374-11.074,1.9-2.127,3.239-5.748,6.112-6.317,4.866-.964,10.268-.612,15.227-1.228a172.338,172.338,0,0,0,18.925-3.408,179.346,179.346,0,0,0,40.658-15.022c4.07-2.116,7.727-4.8,11.675-7.1,4.637-2.7,9.577-3.735,14.031-6.847a23.859,23.859,0,0,1,13.558-4.267c2.4-.063,6.032,1.038,8.3.25,2.094-.729,1.675-2.131.59-3.822-3.371-5.255-10.362-9.216-15.592-12.206a91.829,91.829,0,0,0-24.794-9.643c-14.326-3.328-30-3.66-44.539-1.777-10.3,1.335-20.175,4.739-30.419,6.356-9.551,1.508-18.593.73-28.025-1.008-15.346-2.828-29.861.507-42.991,8.966-.4.261-.029.91.379.648Z" transform="translate(-16.108 137.034)"/>
      <path id="Trazado_44" data-name="Trazado 44" d="M347.571,265.173a37.131,37.131,0,0,1,4.386-24.861.375.375,0,0,0-.648-.379,37.987,37.987,0,0,0-4.462,25.439C346.928,265.847,347.65,265.646,347.571,265.173Z" transform="translate(-16.108 137.034)"/>
    </g>
  </g>
</svg>
